<svg xmlns="http://www.w3.org/2000/svg" viewBox="0 0 1920 1080" fill="none">
  <g stroke="#686868" stroke-width="1.4" stroke-opacity="0.26">
    <path d="M-80 1012C56 938 180 850 325 809C480 765 636 790 793 757C930 728 1053 652 1190 614C1338 573 1508 576 1656 621C1769 655 1873 726 1992 745"/>
    <path d="M-70 941C71 872 202 792 347 756C499 717 650 742 804 711C939 684 1056 611 1188 575C1331 536 1493 538 1638 579C1753 612 1860 684 1980 706"/>
    <path d="M-55 875C88 811 220 739 364 707C513 674 659 697 810 667C942 641 1055 573 1182 540C1320 504 1475 504 1617 540C1734 570 1845 642 1968 668"/>
    <path d="M-40 811C105 752 237 688 380 661C526 633 668 654 815 625C945 600 1054 537 1178 505C1311 471 1460 469 1598 500C1716 527 1831 600 1956 632"/>
    <path d="M-24 748C121 695 254 639 395 616C540 592 676 611 820 584C947 560 1052 503 1174 473C1304 441 1447 437 1580 464C1702 488 1820 560 1948 596"/>
    <path d="M-8 687C137 640 271 592 409 574C553 555 685 571 823 548C947 526 1051 471 1171 444C1298 414 1437 409 1568 434C1692 456 1813 526 1942 564"/>
    <path d="M10 627C153 586 287 546 423 534C565 518 694 531 828 514C949 499 1051 442 1168 418C1293 391 1429 385 1558 408C1686 428 1808 495 1938 534"/>
    <path d="M31 568C169 531 303 499 438 492C576 480 704 490 834 478C952 466 1053 416 1166 394C1288 370 1422 362 1553 385C1682 404 1807 467 1938 507"/>
    <path d="M55 511C185 478 319 454 453 452C588 449 714 457 842 444C957 432 1056 392 1165 373C1284 352 1419 340 1551 364C1682 383 1808 441 1941 483"/>
    <path d="M82 456C200 424 333 406 468 409C600 412 723 420 852 412C968 405 1063 371 1165 355C1278 337 1416 321 1553 346C1684 367 1812 419 1948 463"/>
    <path d="M112 403C214 369 347 356 482 368C611 380 732 390 864 384C982 378 1073 351 1167 340C1270 327 1413 306 1559 332C1690 355 1818 401 1958 447"/>
    <path d="M146 353C227 316 359 307 496 330C623 352 742 365 878 358C997 351 1088 335 1171 329C1262 322 1409 294 1567 321C1697 347 1827 387 1972 436"/>
    <path d="M184 307C240 266 372 260 512 295C635 326 752 342 894 336C1012 331 1107 322 1177 322C1252 322 1404 286 1578 314C1704 345 1836 378 1988 430"/>

    <path d="M-48 267C91 304 214 374 356 393C507 414 659 360 817 371C951 380 1075 449 1208 476C1352 505 1517 492 1660 446C1770 410 1870 335 1980 313"/>
    <path d="M-37 216C104 258 227 333 368 356C517 381 665 330 819 343C949 355 1068 422 1197 450C1337 480 1494 470 1632 427C1746 392 1851 318 1964 295"/>
    <path d="M-25 166C117 213 240 291 379 321C526 349 670 301 821 317C947 331 1062 397 1187 426C1322 457 1471 449 1606 409C1724 375 1833 302 1950 278"/>
    <path d="M-11 119C130 170 253 251 389 287C534 317 674 274 823 293C945 309 1056 374 1178 404C1309 436 1451 430 1582 392C1704 359 1818 289 1938 263"/>
    <path d="M3 76C143 130 266 213 399 255C542 286 677 249 825 271C943 289 1050 353 1169 384C1296 416 1433 413 1559 377C1686 344 1806 278 1929 249"/>

    <path d="M286 736C320 620 394 557 477 561C558 565 626 640 621 738C615 854 539 936 447 923C339 908 252 847 286 736Z"/>
    <path d="M337 735C361 655 412 614 471 617C527 621 575 675 571 742C567 825 516 884 451 876C375 868 313 812 337 735Z"/>
    <path d="M383 734C398 685 430 660 468 662C506 665 536 702 534 744C531 795 497 831 455 827C405 822 368 781 383 734Z"/>

    <path d="M830 508C879 372 986 306 1114 321C1249 338 1350 465 1325 610C1298 766 1175 861 1030 837C860 808 780 648 830 508Z"/>
    <path d="M891 511C925 417 999 372 1087 382C1178 392 1248 479 1231 579C1212 683 1125 749 1028 733C915 714 856 607 891 511Z"/>
    <path d="M946 513C969 451 1018 420 1078 427C1140 435 1189 493 1178 560C1166 630 1109 675 1040 664C959 651 923 575 946 513Z"/>
    <path d="M995 515C1010 476 1040 457 1078 461C1117 465 1148 502 1141 543C1133 586 1098 613 1056 606C1008 598 980 554 995 515Z"/>

    <path d="M1447 322C1480 236 1538 187 1607 190C1685 194 1755 275 1761 369C1768 469 1706 555 1618 564C1510 576 1411 416 1447 322Z"/>
    <path d="M1491 323C1514 266 1554 234 1604 236C1660 239 1711 298 1715 367C1719 432 1672 489 1613 495C1539 503 1465 385 1491 323Z"/>
    <path d="M1531 324C1546 289 1572 270 1603 271C1638 274 1671 311 1674 365C1676 405 1642 438 1606 442C1559 447 1514 364 1531 324Z"/>
  </g>
</svg>
